<?xml version="1.0"?>
<svg xmlns="http://www.w3.org/2000/svg" xmlns:xlink="http://www.w3.org/1999/xlink" version="1.1" id="Capa_1" x="0px" y="0px" width="512px" height="512px" viewBox="0 0 58.99 58.989" style="enable-background:new 0 0 58.99 58.989;" xml:space="preserve" class=""><g transform="matrix(1, -2.44929e-16, 2.44929e-16, 1, -3.55271e-15, 1.42109e-14)"><g>
	<g>
		<path d="M25.127,35.653c0.206,0,0.341-0.108,0.406-0.324c0.063-0.215,0.096-0.526,0.096-0.934c0-0.427-0.033-0.742-0.096-0.948    c-0.064-0.204-0.2-0.307-0.406-0.307c-0.207,0-0.344,0.104-0.411,0.307c-0.066,0.206-0.1,0.521-0.1,0.948    c0,0.407,0.034,0.718,0.1,0.934C24.784,35.545,24.921,35.653,25.127,35.653z" data-original="#000000" class="active-path" data-old_color="#000000" fill="#194C80"/>
		<path d="M19.565,33.141c-0.206,0-0.343,0.104-0.411,0.307c-0.066,0.206-0.1,0.521-0.1,0.948c0,0.407,0.033,0.718,0.1,0.934    c0.067,0.216,0.205,0.324,0.411,0.324c0.207,0,0.342-0.108,0.406-0.324c0.064-0.215,0.096-0.526,0.096-0.934    c0-0.427-0.032-0.742-0.096-0.948C19.907,33.244,19.773,33.141,19.565,33.141z" data-original="#000000" class="active-path" data-old_color="#000000" fill="#194C80"/>
		<path d="M27.871,40.399c-0.144,0-0.256,0.041-0.335,0.122c-0.079,0.084-0.129,0.193-0.15,0.333h0.967    c-0.01-0.149-0.061-0.263-0.15-0.339C28.114,40.438,28.004,40.399,27.871,40.399z" data-original="#000000" class="active-path" data-old_color="#000000" fill="#194C80"/>
		<path d="M27.909,33.141c-0.207,0-0.344,0.104-0.411,0.307c-0.067,0.206-0.1,0.521-0.1,0.948c0,0.407,0.033,0.718,0.1,0.934    c0.066,0.216,0.204,0.324,0.411,0.324c0.206,0,0.342-0.108,0.406-0.324c0.063-0.215,0.096-0.526,0.096-0.934    c0-0.427-0.033-0.742-0.096-0.948C28.25,33.244,28.114,33.141,27.909,33.141z" data-original="#000000" class="active-path" data-old_color="#000000" fill="#194C80"/>
		<path d="M22.347,33.141c-0.207,0-0.344,0.104-0.411,0.307c-0.066,0.206-0.1,0.521-0.1,0.948c0,0.407,0.034,0.718,0.1,0.934    c0.067,0.216,0.204,0.324,0.411,0.324c0.206,0,0.341-0.108,0.406-0.324c0.063-0.215,0.096-0.526,0.096-0.934    c0-0.427-0.033-0.742-0.096-0.948C22.688,33.244,22.553,33.141,22.347,33.141z" data-original="#000000" class="active-path" data-old_color="#000000" fill="#194C80"/>
		<path d="M22.075,41.19l-0.128,0.023c-0.12,0.021-0.206,0.046-0.258,0.077c-0.088,0.051-0.132,0.13-0.132,0.237    c0,0.097,0.027,0.167,0.082,0.21c0.054,0.043,0.12,0.064,0.198,0.064c0.123,0,0.235-0.036,0.34-0.107    c0.103-0.07,0.157-0.199,0.161-0.389v-0.208c-0.036,0.021-0.072,0.039-0.109,0.054C22.189,41.165,22.139,41.177,22.075,41.19z" data-original="#000000" class="active-path" data-old_color="#000000" fill="#194C80"/>
		<path d="M11.226,35.653c0.207,0,0.342-0.108,0.406-0.324c0.063-0.215,0.096-0.526,0.096-0.934c0-0.427-0.032-0.742-0.096-0.948    c-0.064-0.204-0.2-0.307-0.406-0.307c-0.206,0-0.344,0.104-0.411,0.307c-0.066,0.206-0.1,0.521-0.1,0.948    c0,0.407,0.033,0.718,0.1,0.934C10.882,35.545,11.019,35.653,11.226,35.653z" data-original="#000000" class="active-path" data-old_color="#000000" fill="#194C80"/>
		<path d="M8.533,41.19l-0.128,0.023c-0.12,0.021-0.206,0.046-0.258,0.077c-0.089,0.051-0.132,0.13-0.132,0.237    c0,0.097,0.027,0.167,0.082,0.21c0.054,0.043,0.119,0.064,0.198,0.064c0.123,0,0.235-0.036,0.34-0.107    c0.103-0.07,0.157-0.199,0.161-0.389v-0.208c-0.036,0.021-0.072,0.039-0.109,0.054C8.648,41.165,8.597,41.177,8.533,41.19z" data-original="#000000" class="active-path" data-old_color="#000000" fill="#194C80"/>
		<path d="M14.329,40.399c-0.144,0-0.256,0.041-0.335,0.122c-0.08,0.084-0.129,0.193-0.15,0.333h0.968    c-0.01-0.149-0.061-0.263-0.15-0.339C14.573,40.438,14.462,40.399,14.329,40.399z" data-original="#000000" class="active-path" data-old_color="#000000" fill="#194C80"/>
		<path d="M5.665,35.653c0.206,0,0.342-0.108,0.407-0.324c0.063-0.215,0.095-0.526,0.095-0.934c0-0.427-0.032-0.742-0.095-0.948    c-0.065-0.204-0.201-0.307-0.407-0.307c-0.207,0-0.344,0.104-0.41,0.307c-0.067,0.206-0.1,0.521-0.1,0.948    c0,0.407,0.033,0.718,0.1,0.934C5.321,35.546,5.458,35.653,5.665,35.653z" data-original="#000000" class="active-path" data-old_color="#000000" fill="#194C80"/>
		<path d="M8.446,33.141c-0.207,0-0.344,0.104-0.41,0.307c-0.067,0.206-0.101,0.521-0.101,0.948c0,0.407,0.034,0.718,0.101,0.934    c0.066,0.217,0.204,0.324,0.41,0.324c0.206,0,0.342-0.108,0.406-0.324c0.064-0.215,0.096-0.526,0.096-0.934    c0-0.427-0.032-0.742-0.096-0.948C8.787,33.244,8.652,33.141,8.446,33.141z" data-original="#000000" class="active-path" data-old_color="#000000" fill="#194C80"/>
		<path d="M14.006,35.653c0.207,0,0.342-0.108,0.406-0.324c0.063-0.215,0.096-0.526,0.096-0.934c0-0.427-0.032-0.742-0.096-0.948    c-0.064-0.204-0.2-0.307-0.406-0.307c-0.206,0-0.344,0.104-0.411,0.307c-0.066,0.206-0.1,0.521-0.1,0.948    c0,0.407,0.033,0.718,0.1,0.934C13.664,35.545,13.8,35.653,14.006,35.653z" data-original="#000000" class="active-path" data-old_color="#000000" fill="#194C80"/>
		<path d="M54.467,9.422H3.898C1.749,9.422,0,11.193,0,13.37v29.41c0,2.177,1.749,3.948,3.898,3.948h33.047l-1.042-1.041    l-1.041-1.042l-3.378-3.377c-0.813-0.814-0.813-2.133,0-2.946l4.765-4.765c0.407-0.407,0.94-0.61,1.474-0.61    s1.065,0.203,1.473,0.61l3.534,3.534L52.75,27.07c0.391-0.391,0.922-0.61,1.474-0.61s1.082,0.22,1.473,0.61l0.582,0.583    l1.041,1.042l1.042,1.042V13.37C58.364,11.193,56.617,9.422,54.467,9.422z M27.597,41.679c0.085,0.054,0.19,0.08,0.311,0.08    c0.128,0,0.231-0.033,0.311-0.1c0.044-0.035,0.083-0.084,0.115-0.146h0.575c-0.015,0.126-0.084,0.256-0.209,0.389    c-0.192,0.207-0.462,0.312-0.808,0.312c-0.286,0-0.539-0.089-0.757-0.264c-0.219-0.178-0.328-0.464-0.328-0.861    c0-0.372,0.099-0.656,0.296-0.856c0.198-0.199,0.453-0.298,0.768-0.298c0.188,0,0.355,0.033,0.505,0.101s0.274,0.173,0.372,0.317    c0.089,0.129,0.145,0.277,0.171,0.445c0.016,0.1,0.022,0.24,0.019,0.426h-1.565C27.381,41.441,27.457,41.592,27.597,41.679z     M28.856,35.747c-0.182,0.314-0.498,0.472-0.947,0.472c-0.451,0-0.767-0.157-0.949-0.472c-0.181-0.315-0.273-0.767-0.273-1.352    c0-0.584,0.091-1.035,0.273-1.351c0.181-0.318,0.497-0.477,0.949-0.477c0.45,0,0.765,0.158,0.947,0.477    c0.182,0.315,0.273,0.767,0.273,1.351C29.128,34.98,29.038,35.432,28.856,35.747z M25.84,40.572c-0.05-0.1-0.141-0.15-0.275-0.15    c-0.155,0-0.263,0.065-0.322,0.193c-0.03,0.069-0.046,0.149-0.046,0.246v1.28h-0.565v-1.28c0-0.126-0.014-0.22-0.04-0.277    c-0.048-0.105-0.141-0.156-0.278-0.156c-0.16,0-0.268,0.051-0.323,0.156c-0.03,0.06-0.045,0.147-0.045,0.265v1.294h-0.57v-2.146    h0.546v0.312c0.07-0.111,0.135-0.19,0.197-0.238c0.109-0.085,0.25-0.125,0.424-0.125c0.164,0,0.296,0.035,0.399,0.107    c0.081,0.067,0.143,0.152,0.186,0.259c0.074-0.127,0.164-0.22,0.273-0.279c0.116-0.059,0.245-0.087,0.387-0.087    c0.095,0,0.188,0.016,0.28,0.055c0.091,0.036,0.175,0.101,0.25,0.193c0.061,0.075,0.102,0.168,0.122,0.276    c0.014,0.071,0.02,0.177,0.02,0.317l-0.004,1.354h-0.577v-1.368C25.88,40.692,25.867,40.625,25.84,40.572z M22.244,40.442    c-0.063-0.032-0.153-0.049-0.273-0.049c-0.134,0-0.23,0.032-0.285,0.099c-0.04,0.049-0.067,0.115-0.081,0.196h-0.542    c0.012-0.188,0.064-0.342,0.159-0.464c0.148-0.188,0.405-0.283,0.769-0.283c0.236,0,0.446,0.047,0.63,0.141    c0.184,0.094,0.275,0.269,0.275,0.527v0.986c0,0.069,0.001,0.15,0.004,0.249c0.004,0.074,0.015,0.124,0.033,0.15    c0.018,0.026,0.046,0.049,0.083,0.064v0.084h-0.611c-0.017-0.044-0.028-0.085-0.036-0.122c-0.006-0.039-0.011-0.082-0.016-0.131    c-0.078,0.085-0.167,0.157-0.27,0.215c-0.122,0.07-0.259,0.104-0.413,0.104c-0.196,0-0.357-0.056-0.485-0.166    c-0.127-0.112-0.192-0.27-0.192-0.473c0-0.265,0.102-0.455,0.307-0.573c0.112-0.065,0.278-0.111,0.497-0.139l0.193-0.024    c0.104-0.012,0.179-0.028,0.224-0.049c0.081-0.033,0.121-0.088,0.121-0.158C22.336,40.538,22.307,40.477,22.244,40.442z     M22.347,36.221c-0.451,0-0.767-0.157-0.949-0.474c-0.182-0.315-0.273-0.766-0.273-1.35c0-0.585,0.09-1.035,0.273-1.353    c0.181-0.317,0.497-0.477,0.949-0.477c0.45,0,0.766,0.159,0.948,0.477c0.181,0.317,0.273,0.768,0.273,1.353    c0,0.584-0.09,1.034-0.273,1.35C23.113,36.062,22.797,36.221,22.347,36.221z M23.906,34.396c0-0.584,0.091-1.035,0.273-1.351    c0.181-0.318,0.497-0.477,0.949-0.477c0.45,0,0.766,0.158,0.947,0.477c0.182,0.315,0.273,0.767,0.273,1.351    c0,0.585-0.091,1.036-0.273,1.352c-0.182,0.314-0.498,0.472-0.947,0.472c-0.451,0-0.767-0.157-0.949-0.472    C23.997,35.432,23.906,34.98,23.906,34.396z M20.514,35.747c-0.181,0.314-0.498,0.472-0.948,0.472    c-0.451,0-0.767-0.157-0.949-0.472c-0.181-0.315-0.273-0.767-0.273-1.352c0-0.584,0.09-1.035,0.273-1.351    c0.181-0.318,0.497-0.477,0.949-0.477c0.45,0,0.766,0.158,0.948,0.477c0.181,0.315,0.273,0.767,0.273,1.351    C20.787,34.98,20.696,35.432,20.514,35.747z M20.616,39.235v2.907h-0.607l-1.184-2.062v2.062h-0.565v-2.907h0.636l1.155,2.027    v-2.027H20.616z M14.055,41.679c0.085,0.054,0.189,0.08,0.311,0.08c0.128,0,0.232-0.033,0.312-0.1    c0.043-0.035,0.082-0.084,0.115-0.146h0.574c-0.015,0.126-0.084,0.256-0.208,0.389c-0.193,0.207-0.462,0.312-0.808,0.312    c-0.287,0-0.539-0.089-0.757-0.264c-0.219-0.178-0.328-0.464-0.328-0.861c0-0.372,0.099-0.656,0.296-0.856    c0.198-0.199,0.453-0.298,0.769-0.298c0.188,0,0.355,0.033,0.505,0.101c0.15,0.067,0.274,0.173,0.372,0.317    c0.089,0.129,0.145,0.277,0.171,0.445c0.016,0.1,0.022,0.24,0.019,0.426H13.83C13.839,41.441,13.915,41.592,14.055,41.679z     M12.299,40.572c-0.05-0.1-0.142-0.15-0.276-0.15c-0.155,0-0.262,0.065-0.322,0.193c-0.03,0.069-0.046,0.149-0.046,0.246v1.28    H11.09v-1.28c0-0.126-0.014-0.22-0.04-0.277c-0.048-0.105-0.141-0.156-0.278-0.156c-0.16,0-0.268,0.051-0.323,0.156    c-0.03,0.06-0.044,0.147-0.044,0.265v1.294h-0.57v-2.146h0.546v0.312c0.069-0.111,0.135-0.19,0.197-0.238    c0.109-0.085,0.25-0.125,0.424-0.125c0.164,0,0.296,0.035,0.398,0.107c0.082,0.067,0.143,0.152,0.186,0.259    c0.074-0.127,0.165-0.22,0.274-0.279c0.116-0.059,0.245-0.087,0.386-0.087c0.095,0,0.188,0.016,0.28,0.055    c0.092,0.036,0.175,0.101,0.25,0.193c0.061,0.075,0.101,0.168,0.122,0.276c0.014,0.071,0.02,0.177,0.02,0.317l-0.004,1.354h-0.576    v-1.368C12.338,40.692,12.325,40.625,12.299,40.572z M8.702,40.442c-0.062-0.032-0.153-0.049-0.273-0.049    c-0.134,0-0.23,0.032-0.286,0.099c-0.04,0.049-0.066,0.115-0.08,0.196H7.521c0.012-0.188,0.065-0.342,0.159-0.464    c0.149-0.188,0.405-0.283,0.769-0.283c0.237,0,0.446,0.047,0.63,0.141c0.184,0.094,0.275,0.269,0.275,0.527v0.986    c0,0.069,0.001,0.15,0.004,0.249c0.004,0.074,0.015,0.124,0.033,0.15c0.018,0.026,0.046,0.049,0.082,0.064v0.084H8.861    c-0.017-0.044-0.028-0.085-0.036-0.122c-0.006-0.039-0.011-0.082-0.015-0.131c-0.078,0.085-0.168,0.157-0.27,0.215    c-0.122,0.07-0.259,0.104-0.413,0.104c-0.196,0-0.357-0.056-0.485-0.166c-0.127-0.112-0.191-0.27-0.191-0.473    c0-0.265,0.102-0.455,0.307-0.573c0.112-0.065,0.278-0.111,0.497-0.139l0.192-0.024c0.104-0.012,0.179-0.028,0.224-0.049    c0.08-0.033,0.121-0.088,0.121-0.158C8.795,40.538,8.765,40.477,8.702,40.442z M9.393,35.747    c-0.182,0.314-0.497,0.472-0.948,0.472s-0.767-0.157-0.949-0.472c-0.181-0.315-0.272-0.767-0.272-1.352    c0-0.584,0.09-1.035,0.272-1.351c0.183-0.318,0.498-0.477,0.949-0.477c0.45,0,0.766,0.158,0.948,0.477    c0.181,0.315,0.272,0.767,0.272,1.351C9.666,34.98,9.575,35.432,9.393,35.747z M6.153,24.329v-2.074h2.094v2.121H6.159    C6.159,24.359,6.153,24.345,6.153,24.329z M14.326,24.329c0,0.017-0.004,0.031-0.005,0.048h-2.089v-2.121h2.094V24.329z     M12.232,25.468h1.862c-0.338,0.795-1.025,1.397-1.862,1.646V25.468z M11.687,21.163L11.687,21.163l-0.547,0.001v3.212h-1.8    v-5.302h2.069c1.319,0,2.423,0.886,2.784,2.089H11.687z M8.248,21.163H6.289c0.281-0.941,1.018-1.676,1.959-1.957V21.163z     M8.248,25.468v1.646c-0.838-0.249-1.523-0.851-1.862-1.646H8.248z M9.339,25.468h1.8v1.779h-1.8V25.468z M11.226,32.568    c0.45,0,0.766,0.158,0.948,0.477c0.181,0.315,0.272,0.767,0.272,1.351c0,0.585-0.09,1.036-0.272,1.352    c-0.182,0.314-0.497,0.472-0.948,0.472s-0.767-0.157-0.949-0.472c-0.181-0.315-0.272-0.767-0.272-1.352    c0-0.584,0.09-1.035,0.272-1.351C10.459,32.727,10.775,32.568,11.226,32.568z M5.665,32.568c0.45,0,0.766,0.158,0.948,0.477    c0.182,0.315,0.273,0.767,0.273,1.351c0,0.585-0.09,1.036-0.273,1.352c-0.181,0.314-0.497,0.472-0.948,0.472    s-0.767-0.157-0.949-0.472c-0.181-0.315-0.273-0.767-0.273-1.352c0-0.584,0.091-1.035,0.273-1.351    C4.898,32.727,5.213,32.568,5.665,32.568z M4.718,39.235h0.636l1.154,2.027v-2.027h0.566v2.907H6.467L5.283,40.08v2.062H4.718    V39.235z M12.786,34.396c0-0.584,0.09-1.035,0.272-1.351c0.183-0.318,0.498-0.477,0.949-0.477c0.45,0,0.766,0.158,0.948,0.477    c0.181,0.315,0.273,0.767,0.273,1.351c0,0.585-0.091,1.036-0.273,1.352c-0.181,0.314-0.497,0.472-0.948,0.472    s-0.767-0.157-0.949-0.472C12.876,35.432,12.786,34.98,12.786,34.396z M47.988,25.018c-0.821,0-1.594-0.202-2.291-0.537    c-0.849,0.54-1.848,0.863-2.925,0.863c-3.023,0-5.483-2.459-5.483-5.483s2.46-5.483,5.483-5.483c0.938,0,1.807,0.258,2.579,0.674    c0.781-0.448,1.675-0.725,2.637-0.725c2.948,0,5.347,2.398,5.347,5.346C53.334,22.62,50.936,25.018,47.988,25.018z" data-original="#000000" class="active-path" data-old_color="#000000" fill="#194C80"/>
		<path d="M56.281,38.963l-5.685,5.683l-1.042,1.042l-1.041,1.041h5.953c2.148,0,3.897-1.77,3.897-3.946V36.88l-1.041,1.042    L56.281,38.963z" data-original="#000000" class="active-path" data-old_color="#000000" fill="#194C80"/>
		<path d="M43.7,19.531h-0.521h-0.521c0.006-0.238,0.034-0.469,0.071-0.697h0.521h0.521h2.93c-0.056-0.288-0.139-0.563-0.244-0.83    h-2.435h-0.544h-0.542c0.083-0.248,0.179-0.485,0.294-0.716h0.587h0.593h1.684c-0.183-0.299-0.388-0.579-0.63-0.83h-0.31h-0.741    h-0.669c0.197-0.26,0.415-0.501,0.655-0.721c-0.505-0.2-1.052-0.319-1.627-0.319c-2.45,0-4.442,1.993-4.442,4.442    c0,2.449,1.992,4.442,4.442,4.442c0.689,0,1.335-0.172,1.92-0.454c-0.188-0.15-0.376-0.299-0.544-0.473h0.782h0.051    c0.129-0.102,0.228-0.235,0.345-0.347c0.163-0.157,0.34-0.301,0.479-0.482h-0.998h-0.675h-0.637    c-0.131-0.205-0.246-0.419-0.348-0.641h0.588h0.592h1.889c0.143-0.263,0.256-0.54,0.346-0.829h-2.623h-0.543h-0.543    c-0.063-0.233-0.11-0.472-0.142-0.716h0.521h0.521h2.967c0.031-0.215,0.066-0.427,0.066-0.65c0-0.062-0.016-0.118-0.018-0.179    H43.7z" data-original="#000000" class="active-path" data-old_color="#000000" fill="#194C80"/>
		<polygon points="58.99,33.308 58.364,32.682 57.323,31.64 56.281,30.599 54.225,28.542 42.731,40.037 37.723,35.03 32.958,39.795     37.808,44.646 38.85,45.688 39.892,46.729 42.731,49.567 42.756,49.541 42.756,49.541 45.568,46.729 46.61,45.688 47.651,44.646     56.281,36.016 57.323,34.974 58.364,33.932   " data-original="#000000" class="active-path" data-old_color="#000000" fill="#194C80"/>
	</g>
</g></g> </svg>
